<svg class="svg-icon" style="width: 1em; height: 1em;vertical-align: middle;fill: currentColor;overflow: hidden;" viewBox="0 0 1024 1024" version="1.1" xmlns="http://www.w3.org/2000/svg"><path d="M344.064 230.4L422.0928 124.928h175.5136l78.0288 105.472z" fill="#E3F1FC" /><path d="M675.6352 240.64H344.064c-3.8912 0-7.3728-2.2528-9.216-5.5296-1.8432-3.4816-1.4336-7.5776 0.8192-10.6496L413.696 118.784c1.8432-2.6624 4.9152-4.096 8.192-4.096h175.5136c3.2768 0 6.3488 1.6384 8.192 4.096l78.0288 105.472c2.2528 3.072 2.6624 7.168 0.8192 10.6496-1.4336 3.6864-4.9152 5.7344-8.8064 5.7344z m-311.296-20.48H655.36L592.2816 135.168h-165.2736l-62.6688 84.992z" fill="#8C2F75" /><path d="M593.3056 135.168h-70.656l73.728 89.088h62.8736z" fill="#75C1E3" /><path d="M424.7552 135.168h13.312l-61.44 89.088h-17.8176z" fill="#FFFFFF" /><path d="M543.1296 135.168l24.9856 89.088h49.9712L572.416 135.168z" fill="#B8E4FF" /><path d="M675.6352 230.4l-110.7968 146.8416h-109.9776L344.064 230.4z" fill="#E3F1FC" /><path d="M564.8384 387.4816h-109.9776c-3.2768 0-6.144-1.4336-8.192-4.096L335.872 236.7488c-2.2528-3.072-2.6624-7.168-1.024-10.6496s5.3248-5.7344 9.216-5.7344h331.5712c3.8912 0 7.3728 2.2528 9.216 5.7344 1.6384 3.4816 1.4336 7.5776-1.024 10.6496l-110.7968 146.6368c-2.048 2.4576-5.12 4.096-8.192 4.096z m-104.8576-20.48h99.7376l95.4368-126.1568H364.544l95.4368 126.1568z" fill="#8C2F75" /><path d="M654.9504 240.64h-48.128l-88.4736 126.3616h43.008z" fill="#75C1E3" /><path d="M364.544 240.64h15.5648l84.1728 126.1568h-6.144z" fill="#FFFFFF" /><path d="M618.9056 240.64l-73.5232 126.3616h-29.4912l49.152-126.3616z" fill="#B8E4FF" /><path d="M616.448 878.1824H407.552c-29.9008 0-55.7056-21.7088-60.6208-51.2l-40.1408-239.0016c-10.4448-62.464 37.6832-119.3984 100.9664-119.3984h208.4864c63.2832 0 111.4112 56.9344 100.9664 119.3984l-40.1408 239.0016c-5.12 29.696-30.72 51.2-60.6208 51.2z" fill="#FAC0B4" /><path d="M452.4032 878.1824c-29.9008 0-55.7056-21.7088-60.6208-51.2l-40.1408-239.0016c-10.24-61.2352 35.84-117.3504 97.4848-119.3984h-41.3696c-63.2832 0-111.4112 56.9344-100.9664 119.3984l40.1408 239.0016c4.9152 29.4912 30.5152 51.2 60.6208 51.2h44.8512z" fill="#FFFFFF" /><path d="M615.2192 468.5824h-58.368c63.2832 0 111.4112 56.9344 100.9664 119.3984l-40.1408 239.0016c-4.9152 29.4912-30.5152 51.2-60.6208 51.2h58.368c29.9008 0 55.7056-21.7088 60.6208-51.2l40.1408-239.0016c10.4448-62.464-37.6832-119.3984-100.9664-119.3984z" fill="#DA909D" /><path d="M616.2432 878.1824H407.552c-29.9008 0-55.5008-21.7088-60.6208-51.2l-16.5888-98.304s75.776-59.392 176.128-2.8672c91.7504 51.6096 186.9824 2.8672 186.9824 2.8672l-16.7936 98.304c-4.9152 29.4912-30.5152 51.2-60.416 51.2z" fill="#FFA87B" /><path d="M390.144 826.9824l-17.6128-108.1344s26.8288-10.24 68.1984-15.9744c-65.7408-9.0112-110.1824 25.8048-110.1824 25.8048l16.5888 98.304c4.9152 29.4912 30.5152 51.2 60.6208 51.2h43.008c-30.1056 0-55.7056-21.7088-60.6208-51.2z" fill="#FFBB8A" /><path d="M630.9888 747.1104l-13.5168 79.872c-5.12 29.4912-30.5152 51.2-60.6208 51.2h59.392c29.9008 0 55.5008-21.7088 60.6208-51.2l16.7936-98.304c-0.2048 0-25.6 12.9024-62.6688 18.432z" fill="#E48473" /><path d="M582.656 478.8224h-142.7456c-14.7456 0-26.624-11.8784-26.624-26.624v-54.4768c0-14.7456 11.8784-26.624 26.624-26.624h142.7456c14.7456 0 26.624 11.8784 26.624 26.624v54.4768c0 14.7456-11.8784 26.624-26.624 26.624z m-142.7456-87.2448c-3.2768 0-6.144 2.8672-6.144 6.144v54.4768c0 3.2768 2.8672 6.144 6.144 6.144h142.7456c3.2768 0 6.144-2.8672 6.144-6.144v-54.4768c0-3.2768-2.8672-6.144-6.144-6.144h-142.7456z" fill="#8C2F75" /><path d="M616.448 888.4224H407.552c-35.2256 0-64.9216-25.1904-70.656-59.8016l-40.1408-239.0016c-5.5296-32.768 3.6864-66.1504 24.9856-91.3408 21.504-25.3952 52.8384-39.936 86.016-39.936h208.4864c33.1776 0 64.512 14.5408 86.016 39.936s30.5152 58.7776 24.9856 91.3408l-40.1408 239.0016c-5.9392 34.6112-35.6352 59.8016-70.656 59.8016z m-208.6912-409.6c-27.2384 0-52.8384 11.8784-70.4512 32.5632-17.6128 20.6848-24.9856 47.9232-20.48 74.752l40.1408 239.0016c4.096 24.7808 25.3952 42.8032 50.5856 42.8032h208.896c25.1904 0 46.2848-18.0224 50.5856-42.8032l40.1408-239.0016c4.5056-26.8288-2.8672-54.0672-20.48-74.752-17.6128-20.6848-43.2128-32.5632-70.4512-32.5632H407.7568z" fill="#8C2F75" /><path d="M386.6624 560.5376c-1.024 0-2.048-0.2048-3.072-0.4096-5.3248-1.6384-8.3968-7.5776-6.5536-12.9024 7.7824-24.1664 24.3712-44.2368 46.8992-56.32 4.9152-2.6624 11.264-0.8192 13.9264 4.3008 2.6624 4.9152 0.8192 11.264-4.3008 13.9264-17.408 9.4208-31.1296 25.6-37.0688 44.4416-1.6384 4.096-5.5296 6.9632-9.8304 6.9632zM391.3728 627.0976c-4.3008 0-8.192-2.6624-9.6256-6.9632l-4.3008-12.6976c-1.6384-4.5056-2.8672-9.216-3.6864-13.9264-1.024-5.5296 2.6624-10.8544 8.192-11.8784s10.8544 2.6624 11.8784 8.192c0.6144 3.6864 1.6384 7.3728 2.8672 11.0592l4.3008 12.6976c1.8432 5.3248-1.024 11.264-6.3488 12.9024-1.024 0.4096-2.2528 0.6144-3.2768 0.6144z" fill="#FFFFFF" /><path d="M439.9104 381.3376h107.9296c9.0112 0 16.384 7.3728 16.384 16.384v54.4768c0 9.0112-7.3728 16.384-16.384 16.384h-107.9296c-9.0112 0-16.384-7.3728-16.384-16.384v-54.4768c0-9.0112 7.3728-16.384 16.384-16.384z" fill="#F2F2F2" /><path d="M547.84 478.8224h-107.9296c-14.7456 0-26.624-11.8784-26.624-26.624v-54.4768c0-14.7456 11.8784-26.624 26.624-26.624h107.9296c14.7456 0 26.624 11.8784 26.624 26.624v54.4768c0 14.7456-11.8784 26.624-26.624 26.624z m-107.9296-87.2448c-3.2768 0-6.144 2.8672-6.144 6.144v54.4768c0 3.2768 2.8672 6.144 6.144 6.144h107.9296c3.2768 0 6.144-2.8672 6.144-6.144v-54.4768c0-3.2768-2.8672-6.144-6.144-6.144h-107.9296z" fill="#8C2F75" /><path d="M520.192 391.5776h-26.2144c-4.5056 0-8.3968-2.8672-9.8304-7.168L438.4768 237.568c-0.6144-2.048-0.6144-4.096 0-6.144l33.9968-105.472c1.4336-4.3008 5.3248-7.168 9.8304-7.168h49.5616c4.5056 0 8.3968 2.8672 9.8304 7.168l32.9728 105.472c0.6144 2.048 0.6144 4.096 0 5.9392l-44.4416 146.6368c-1.4336 4.5056-5.5296 7.5776-10.0352 7.5776z m-18.6368-20.48h11.0592l41.3696-136.3968L524.288 139.264h-34.4064l-30.72 95.4368 42.3936 136.3968z" fill="#8C2F75" /><path d="M616.2432 888.4224H407.552c-35.0208 0-64.9216-25.1904-70.656-59.8016l-17.6128-104.2432 4.7104-3.6864c0.8192-0.6144 21.0944-16.1792 54.272-24.576 30.5152-7.5776 78.4384-10.0352 133.12 20.6848 86.016 48.3328 176.3328 3.2768 177.3568 2.6624l18.2272-9.216-20.0704 118.5792c-5.9392 34.4064-35.6352 59.5968-70.656 59.5968z m-274.6368-155.0336l15.5648 91.9552c4.096 24.7808 25.3952 42.5984 50.5856 42.5984h208.4864c24.9856 0 46.2848-18.0224 50.3808-42.5984l13.5168-80.0768c-32.9728 12.0832-106.2912 30.1056-178.7904-10.6496-79.6672-44.8512-142.1312-12.4928-159.744-1.2288z" fill="#8C2F75" /><path d="M431.5136 768m-13.7216 0a13.7216 13.7216 0 1 0 27.4432 0 13.7216 13.7216 0 1 0-27.4432 0Z" fill="#FB7742" /><path d="M599.04 799.3344m-9.4208 0a9.4208 9.4208 0 1 0 18.8416 0 9.4208 9.4208 0 1 0-18.8416 0Z" fill="#FB7742" /><path d="M513.4336 827.8016m-7.5776 0a7.5776 7.5776 0 1 0 15.1552 0 7.5776 7.5776 0 1 0-15.1552 0Z" fill="#FB7742" /></svg>